<?xml version="1.0" encoding="UTF-8" standalone="no"?>
<!-- Created with Inkscape (http://www.inkscape.org/) -->

<svg
   version="1.1"
   id="svg1"
   width="446.7095"
   height="456.73822"
   viewBox="0 0 446.70951 456.73822"
   sodipodi:docname="github.svg"
   xml:space="preserve"
   inkscape:version="1.4 (86a8ad7, 2024-10-11)"
   xmlns:inkscape="http://www.inkscape.org/namespaces/inkscape"
   xmlns:sodipodi="http://sodipodi.sourceforge.net/DTD/sodipodi-0.dtd"
   xmlns:xlink="http://www.w3.org/1999/xlink"
   xmlns="http://www.w3.org/2000/svg"
   xmlns:svg="http://www.w3.org/2000/svg"><defs
     id="defs1"><radialGradient
       xlink:href="#linearGradient71"
       id="radialGradient73"
       cx="-1655.0302"
       cy="765.95459"
       fx="-1655.0302"
       fy="765.95459"
       r="669.97595"
       gradientTransform="matrix(0.19884553,0,0,0.14902182,-730.85815,-95.946394)"
       gradientUnits="userSpaceOnUse" /><linearGradient
       id="linearGradient71"><stop
         style="stop-color:#67afc0;stop-opacity:1;"
         offset="0"
         id="stop72" /><stop
         style="stop-color:#3c1f4b;stop-opacity:1;"
         offset="1"
         id="stop73" /></linearGradient><pattern
       xlink:href="#DecorativePaper"
       preserveAspectRatio="xMidYMid"
       id="pattern104"
       patternTransform="matrix(0.09934319,0,0,0.13005077,-731.25975,-180.40286)" /><pattern
       patternUnits="userSpaceOnUse"
       width="100"
       height="100"
       id="DecorativePaper"
       style="fill:#000000"
       preserveAspectRatio="xMidYMid"
       patternTransform="scale(0.5,0.5)"><path
         id="path163941"
         style="opacity:1;fill-opacity:0.994819;stroke-width:1"
         d="m 95.49805,0 c 0.2337,0.655687 1.33166,1.004203 1.73437,1.650391 l 0.002,0.0019 c 0.0425,0.01128 0.0803,0.0198 0.12305,0.03125 -0.0136,0.05056 -0.0274,0.09646 -0.041,0.146484 0.33338,0.766429 0.14131,1.975512 0.89062,2.279297 C 98.81461,4.355647 99.39115,3.738046 100,3.326122 V 0 Z m 1.81836,1.830078 c -0.0263,-0.06034 -0.0485,-0.123616 -0.082,-0.177734 -5.39503,-1.43204 -9.126682,-1.557222 -12.402348,0.333984 -4.330124,2.499998 -5.92927,5.732002 -7.027343,9.830078 4.098069,1.098079 9.063243,1.697264 12.527341,-0.302734 3.43205,-1.981503 5.52214,-4.326625 6.98438,-9.683594 z M 100,3.666016 C 96.44152,7.35613 94.63867,10.404321 94.63867,14 c 0,4.999995 2.00001,8.000013 5,11 0.12095,-0.120944 0.24058,-0.252824 0.36133,-0.376953 z m 0,71.001953 C 97.22825,77.581702 94.63867,81.285412 94.63867,85 c 0,3.956986 0.98357,6.93711 4.87696,10.87305 0.0495,0.0325 0.0999,0.061 0.14843,0.0996 C 99.78318,95.85337 99.88445,95.74091 100,95.62304 Z M 99.66406,95.97266 c -0.009,0.009 -0.0162,0.0182 -0.0254,0.0273 -0.043,-0.043 -0.0807,-0.0842 -0.12304,-0.12696 -0.22218,-0.1458 -0.45293,-0.23001 -0.71094,-0.16601 -0.84738,0.2102 -0.75052,1.62874 -1.3125,2.29687 -0.56199,0.66813 -1.97713,0.81665 -2.03906,1.6875 -0.008,0.11138 0.0106,0.21244 0.0449,0.3086 H 100 V 96.27535 C 99.88915,96.166 99.77708,96.06253 99.66406,95.97262 Z M 83.5,85.529297 c -1.704673,-0.0074 -3.402407,0.306702 -5.195312,0.787109 1.098075,4.098074 3.063245,8.697264 6.527343,10.697264 3.464096,2 6.561299,2.63403 12.025389,1.16992 C 95.39332,92.7195 93.63351,89.392441 90.33203,87.486328 87.896338,86.08008 85.691722,85.538783 83.5,85.529297 Z M 0.638672,74 C 0.424614,74.214058 0.212968,74.444092 0,74.667969 V 95.62305 C 3.746981,91.80072 5.638672,88.689684 5.638672,85 c 0,-4.999995 -2.000004,-8.000003 -5,-11 z m 15.332031,12.173828 c -2.186294,-0.03678 -4.293342,0.312503 -6.025391,1.3125 -3.454717,1.994583 -5.550106,4.354532 -7.013671,9.787112 0.182098,0.0273 0.35088,0.0716 0.486328,0.16601 5.188444,1.33602 8.830172,1.42011 12.027343,-0.42578 4.330122,-2.5 5.929273,-5.732 7.027344,-9.830076 -2.049035,-0.549037 -4.315658,-0.972987 -6.501953,-1.009766 z M 3.417969,97.43945 c -0.169265,-0.0436 -0.325421,-0.0768 -0.498047,-0.12304 0.004,-0.0148 0.0077,-0.0282 0.01172,-0.043 C 2.343505,97.18521 1.579644,97.34221 1.039064,97.12302 0.658911,96.96893 0.330006,96.60093 0,96.27539 V 100 H 3.017578 C 3.213131,99.19311 4.051132,98.33961 3.628906,97.66211 3.571186,97.56951 3.499814,97.49652 3.417969,97.43945 Z M 0,0 V 3.326172 C 0.200629,3.190434 0.405626,3.078197 0.615234,3.025391 c 0.0085,-0.0085 0.01493,-0.01688 0.02344,-0.02539 0.0064,0.0064 0.01121,0.01315 0.01758,0.01953 C 1.502169,2.836995 2.705571,3.514336 3.25977,2.855468 3.821753,2.187341 2.910716,1.095463 2.972656,0.224609 2.97796,0.150044 2.999266,0.075558 3.017578,0 Z m 0.65625,3.019531 c -0.01189,0.0026 -0.02537,9.93e-4 -0.03711,0.0039 -0.0014,3.4e-4 -0.0025,0.0016 -0.0039,0.002 C 0.396993,3.243908 0.206283,3.452101 0,3.666016 V 24.623047 C 2.874373,21.668176 5.638672,17.838737 5.638672,14 5.638672,10.006389 4.640295,7.009952 0.65625,3.019531 Z M 8.712891,0.015625 C 7.185226,0.013225 5.468957,0.26737 3.419922,0.816406 c 1.464098,5.464097 3.223909,8.791155 6.52539,10.697266 4.330119,2.499997 7.929269,2.267996 12.027344,1.169922 C 20.874579,8.585521 18.90941,3.986329 15.445312,1.986328 13.280254,0.736331 11.258999,0.019694 8.712891,0.015625 Z m 44.546711,52.839891 c -0.561988,0.668128 -1.792958,-0.04298 -2.640332,0.167217 -0.847373,0.210199 -1.603289,1.414175 -2.41238,1.086156 -0.809091,-0.328019 -0.513177,-1.718487 -0.974941,-2.459432 -0.461764,-0.740944 -1.840403,-1.087814 -1.778461,-1.958669 0.06194,-0.870855 1.475797,-1.019102 2.037785,-1.68723 0.561987,-0.668128 0.465857,-2.086481 1.31323,-2.29668 0.847374,-0.210199 1.42527,1.088647 2.234362,1.416666 0.809091,0.328019 2.128319,-0.201701 2.590082,0.539244 0.461764,0.740945 -0.594932,1.691923 -0.656874,2.562778 -0.06194,0.870855 0.849517,1.961822 0.287529,2.62995 z m 6.686643,8.657629 c 4.330123,2.5 7.928198,2.267947 12.026277,1.169872 -1.098078,-4.098077 -3.06218,-8.696152 -6.526281,-10.696155 -3.464097,-1.999997 -6.562176,-2.63397 -12.026275,-1.169872 1.4641,5.464102 3.224794,8.790042 6.526279,10.696155 z M 40.331514,37.486862 c -4.330126,-2.5 -7.928205,-2.267947 -12.026279,-1.169872 1.098077,4.098077 3.062179,8.696152 6.526281,10.696155 3.464099,2 6.562173,2.633975 12.026274,1.169872 -1.464102,-5.464102 -3.224797,-8.79004 -6.526276,-10.696155 z m 25.114727,9.526283 c 4.330126,-2.500003 5.928206,-5.732053 7.026278,-9.830128 -4.098074,-1.098075 -9.062173,-1.696152 -12.526274,0.303845 -3.464105,2.000003 -5.562179,4.366028 -7.026281,9.830128 5.464103,1.4641 9.2248,1.602267 12.526277,-0.303845 z m -30.614725,4.973717 c -4.330129,2.5 -5.928204,5.732053 -7.026279,9.830128 4.098074,1.09808 9.062173,1.696155 12.526277,-0.303845 3.464099,-2.000003 5.562171,-4.366025 7.026274,-9.830128 -5.464099,-1.464102 -9.224793,-1.602265 -12.526272,0.303845 z m 20.80736,-16.986857 c 0,-5 -2,-8 -4.999999,-11 -3,3 -5.999996,6.999997 -5.999996,11 0,4 0.999999,7 4.999996,11 3.999999,-4 5.999999,-7.187775 5.999999,-11 z m -10.999995,29 c 0,5 1.999999,8 4.999996,10.999999 3,-3 5.999999,-6.999999 5.999999,-10.999999 0,-4.000003 -1,-7.000003 -4.999999,-11 -3.999997,3.999997 -5.999996,7.187775 -5.999996,11 z m 6.361112,32.000005 a 3,3 0 0 0 3,3 3,3 0 0 0 3,-3 3,3 0 0 0 -3,-3 3,3 0 0 0 -3,3 z M 92.99998,54.000005 a 3,3 0 0 0 3,3 3,3 0 0 0 3,-3 3,3 0 0 0 -3,-3 3,3 0 0 0 -3,3 z m -6.999996,6.999997 a 3,3 0 0 0 3,3 3,3 0 0 0 3,-3 3,3 0 0 0 -3,-3 3,3 0 0 0 -3,3 z m -6.999995,7.000003 a 3,3 0 0 0 3,3 3,3 0 0 0 3,-3 3,3 0 0 0 -3,-3 3,3 0 0 0 -3,3 z m -7.000001,6.999997 a 3,3 0 0 0 3,3 3,3 0 0 0 3,-3 3,3 0 0 0 -3,-3 3,3 0 0 0 -3,3 z m -6.999999,7.000003 a 3,3 0 0 0 3,3 3,3 0 0 0 3,-3 3,3 0 0 0 -3,-3 3,3 0 0 0 -3,3 z m -6.999998,6.999997 A 3,3 0 0 0 60.999993,92 a 3,3 0 0 0 3,-3 3,3 0 0 0 -3,-3 3,3 0 0 0 -3,3 z m -56.999983,-43 a 3,3 0 0 0 3,3 3,3 0 0 0 3,-3 3,3 0 0 0 -3,-3 3,3 0 0 0 -3,3 z M 42.999995,4.000006 a 3,3 0 0 0 3,3 3,3 0 0 0 3,-3 3,3 0 0 0 -3,-3.000004 3,3 0 0 0 -3,3.000004 z m -6.999999,6.999998 a 3,3 0 0 0 3,3 3,3 0 0 0 3,-3 3,3 0 0 0 -3,-3 3,3 0 0 0 -3,3 z m -6.999995,6.999999 A 3,3 0 0 0 32,21.000002 a 3,3 0 0 0 3,-3 3,3 0 0 0 -3,-3 3,3 0 0 0 -3,3 z M 22,25.000005 a 3,3 0 0 0 3,3 3,3 0 0 0 3,-3 3,3 0 0 0 -3,-3 3,3 0 0 0 -3,3 z m -6.999997,6.999997 a 3,3 0 0 0 3,3 3,3 0 0 0 3,-3 3,3 0 0 0 -3,-3 3,3 0 0 0 -3,3 z m -6.999999,7.000003 a 3,3 0 0 0 3,3 3,3 0 0 0 3,-3 3,3 0 0 0 -3,-3 3,3 0 0 0 -3,3 z m 90.999976,6.999997 a 3,3 0 0 1 -3,3 3,3 0 0 1 -3,-3 3,3 0 0 1 3,-3 3,3 0 0 1 3,3 z M 56.999991,4.000006 a 3,3 0 0 1 -3,3 3,3 0 0 1 -3,-3 3,3 0 0 1 3,-3.000004 3,3 0 0 1 3,3.000004 z m 7.000001,6.999998 a 3,3 0 0 1 -3,3 3,3 0 0 1 -3,-3 3,3 0 0 1 3,-3 3,3 0 0 1 3,3 z m 6.999996,6.999999 a 3,3 0 0 1 -3,3 3,3 0 0 1 -3,-3 3,3 0 0 1 3,-3 3,3 0 0 1 3,3 z m 7.000001,7.000002 a 3,3 0 0 1 -3,3 3,3 0 0 1 -3,-3 3,3 0 0 1 3,-3 3,3 0 0 1 3,3 z m 6.999996,6.999997 a 3,3 0 0 1 -3,3 3,3 0 0 1 -3,-3 3,3 0 0 1 3,-3 3,3 0 0 1 3,3 z m 6.999995,7.000003 a 3,3 0 0 1 -3,3 3,3 0 0 1 -3,-3 3,3 0 0 1 3,-3 3,3 0 0 1 3,3 z M 48.999993,96.00001 a 3,3 0 0 1 -3,3 3,3 0 0 1 -3,-3 3,3 0 0 1 3,-3 3,3 0 0 1 3,3 z M 7.000004,54.000005 a 3,3 0 0 1 -3,3 3,3 0 0 1 -3,-3 3,3 0 0 1 3,-3 3,3 0 0 1 3,3 z m 7,6.999997 a 3,3 0 0 1 -3,3 3,3 0 0 1 -3,-3 3,3 0 0 1 3,-3 3,3 0 0 1 3,3 z M 21,68.000005 a 3,3 0 0 1 -3,3 3,3 0 0 1 -3,-3 3,3 0 0 1 3,-3 3,3 0 0 1 3,3 z m 7.000001,6.999998 A 3,3 0 0 1 24.999999,78.000002 3,3 0 0 1 22,75.000003 a 3,3 0 0 1 3,-3 3,3 0 0 1 3,3 z m 6.999996,7.000002 a 3,3 0 0 1 -3,3 3,3 0 0 1 -3,-3 3,3 0 0 1 3,-3 3,3 0 0 1 3,3 z m 6.999998,6.999997 A 3,3 0 0 1 38.999996,92 a 3,3 0 0 1 -3,-3 3,3 0 0 1 3,-3 3,3 0 0 1 3,3 z" /></pattern></defs><sodipodi:namedview
     id="namedview1"
     pagecolor="#ffffff"
     bordercolor="#000000"
     borderopacity="0.25"
     inkscape:showpageshadow="2"
     inkscape:pageopacity="0.0"
     inkscape:pagecheckerboard="0"
     inkscape:deskcolor="#d1d1d1"
     showgrid="false"
     inkscape:zoom="0.88560979"
     inkscape:cx="-696.6951"
     inkscape:cy="367.54336"
     inkscape:window-width="1920"
     inkscape:window-height="1057"
     inkscape:window-x="-8"
     inkscape:window-y="-8"
     inkscape:window-maximized="1"
     inkscape:current-layer="layer2"><inkscape:page
       x="0"
       y="0"
       width="446.7095"
       height="456.73822"
       id="page1"
       margin="0"
       bleed="0" /></sodipodi:namedview><g
     inkscape:groupmode="layer"
     id="layer2"
     inkscape:label="Image 1"
     transform="translate(1282.176,196.67714)"><path
       style="display:inline;fill:url(#radialGradient73);fill-opacity:1;stroke:none;stroke-width:0.227152"
       d="m -1037.872,-81.072274 c -14.3582,2.45994 -27.6343,8.55728 -38.576,21.47136 -3.2253,3.80668 -6.3084,8.0732 -8.8635,12.6708 -1.0825,1.94777 -2.4965,6.40652 -4.1032,7.54354 -0.8563,0.60603 -2.4816,-0.6973 -3.3386,-1.01972 -3.0118,-1.13301 -6.0276,-2.10257 -9.1469,-2.59126 -8.7634,-1.37294 -17.8843,-0.0643 -26.0488,4.48195 -10.5994,5.90215 -19.4988,16.30771 -24.8043,29.7300798 -1.605,4.06048 -2.7571,8.33229 -3.7144,12.71487 -0.3213,1.47121 -0.3728,4.717994 -1.2264,5.775774 -0.5954,0.7379502 -1.8972,0.6805802 -2.6667,0.8699802 -1.8209,0.44814 -3.6163,1.13902 -5.3689,1.91811 -4.7614,2.11667 -9.3337,5.6316 -13.1238,9.9348 -14.1582,16.07515 -18.3121,42.98689 -10.2433,65.05616 2.2777,6.22979 5.6459,11.59503 9.448,16.33749 6.5622,8.18518 15.7103,12.86734 24.6568,13.97847 4.1023,0.50947 8.4055,0.0441 12.5273,0.0441 h 22.0718 105.3882 33.60495 c 6.7,0 13.6609,0.7165 20.2822,-0.80028 5.0744,-1.16243 9.8555,-3.58105 14.3169,-6.91168 3.7175,-2.77521 7.1782,-6.48142 9.9682,-10.71162 14.8888,-22.57491 12.8979,-55.78313 -3.2075,-76.2854 -5.4048,-6.88036 -12.2929,-11.06754 -19.4868,-13.6462802 -2.239,-0.8026 -4.6481,-1.177964 -6.9596,-1.384554 -0.7471,-0.0668 -2.0896,0.333454 -2.5795,-0.62467 -0.4196,-0.82049 -0.2044,-2.35204 -0.2044,-3.29085 0,-2.56763 0.1527,-5.228 -0.034,-7.78461 -0.5783,-7.9293998 -1.6644,-15.8641998 -3.8288,-23.3538398 -9.5622,-33.08786 -36.85455,-58.90001 -64.73915,-54.12266 m 57.86405,133.006724 h -0.1988 c -4.4571,-10.44677 -10.7279,-20.08031 -16.0221,-29.84098 -1.4031,-2.58681 -2.8451,-5.14921 -4.19395,-7.78463 -0.569,-1.11188 -1.1768,-2.9465 -2.0914,-3.62563 -0.8595,-0.63823 -2.3846,-0.26668 -3.3437,-0.26668 h -7.755 V 76.0668 c 3.5805,0 7.8489,0.82333 11.3342,-0.25948 l -0.01,-11.41743 -0.1911,-29.58153 h 0.1989 c 4.82325,8.78792 9.62825,17.60736 14.37255,26.46768 2.4081,4.49725 4.6689,10.04766 7.6335,13.94001 1.5044,1.9753 6.202,0.85075 8.2185,0.85075 0.7346,0 2.0921,0.33007 2.6638,-0.41605 0.5987,-0.7812 0.3189,-2.7289 0.3189,-3.73574 V 62.0545 22.09353 c 16.906,0 31.0746,18.38226 31.8074,40.22046 0.2295,6.83684 -1.1911,13.65263 -3.5223,19.72102 -1.6318,4.24797 -3.9003,8.04241 -6.611,11.201 -3.1909,3.71818 -6.8855,6.6016 -10.9365,8.43073 -9.2423,4.1731 -20.3844,2.16518 -30.0257,2.16518 h -56.86985 -84.907 c -12.7132,0 -27.7643,3.17013 -38.7749,-6.93367 -15.6268,-14.33991 -18.6457,-45.27515 -3.9769,-62.5648 3.7656,-4.43843 8.3842,-7.91019 13.3226,-9.52172 3.3845,-1.10443 8.1421,-0.40018 10.6729,-4.03988 1.6697,-2.40119 1.6314,-5.2798 2.0043,-8.27936 0.4283,-3.4456102 1.0994,-6.8681742 2.0777,-10.1200042 4.0375,-13.4197798 12.7665,-24.3808598 23.2246,-29.1416198 7.0082,-3.19025 14.8487,-3.74491 22.0719,-1.50789 2.2199,0.68752 4.4616,1.56716 6.5619,2.73583 2.4981,1.39002 4.8132,3.08195 7.5561,1.63862 2.81,-1.47865 3.8491,-4.81629 5.2901,-7.97724 1.7143,-3.76044 3.7257,-7.31254 5.8993,-10.63896 6.5348,-10.00099 15.2736,-17.30058 24.8017,-21.44531 27.6455,-12.02589 58.65905,9.14837 67.06665,45.5776 2.494,10.8063498 2.3304,21.7928998 2.3304,32.954874 v 37.36612 m -38.57605,-12.19589 h -22.2707 l -0.1988,12.45537 h 8.1526 c 0.8077,0 2.4371,-0.39888 3.0616,0.41606 0.721,0.94093 0.3188,3.7975 0.3188,5.03318 0,1.05003 0.2205,2.63776 -0.2043,3.57757 -0.6546,1.44783 -2.8158,2.17676 -3.9714,2.6435 -4.3859,1.7712 -9.1411,1.23287 -13.1239,-1.77754 -7.4521,-5.6329 -9.3503,-19.10667 -5.9922,-28.83533 3.2565,-9.434 11.8681,-13.40017 19.1161,-9.84366 1.7273,0.84757 3.2876,1.93165 4.7722,3.36031 0.5226,0.50285 1.2792,1.76051 1.9707,1.75893 0.7761,-0.003 1.5415,-1.84781 1.9665,-2.54118 1.6542,-2.6982 3.3423,-5.36111 5.0109,-8.0441 -2.4331,-3.93473 -6.6883,-6.60055 -10.34,-7.9686302 -9.6291,-3.607474 -21.042,-1.3325 -28.4171,8.0126902 -6.4776,8.20801 -8.5422,20.83396 -7.0897,32.13231 0.4813,3.74419 1.3754,7.54635 2.7588,10.89846 6.2658,15.18171 19.9891,19.8751 32.1515,15.92562 3.7376,-1.21366 9.2907,-3.72088 11.8675,-7.66988 1.0789,-1.65335 0.4609,-5.92189 0.4609,-7.99626 V 39.73862 M -1128.5481,10.41659 V 76.0668 h 11.1354 V 29.35913 h 0.1988 c 0.7595,4.18238 2.4224,8.24229 3.6937,12.1959 2.1621,6.72382 4.2009,13.516 6.3631,20.23998 1.0252,3.18835 1.9621,6.42561 3.0112,9.60102 0.4124,1.2484 0.7288,3.03295 1.4115,4.06931 0.7568,1.14868 5.6779,1.10405 6.7138,0.44489 0.7242,-0.46079 1.0378,-2.31205 1.316,-3.21675 0.8524,-2.77218 1.6971,-5.55947 2.6011,-8.30359 3.8431,-11.66576 8.1615,-23.52692 11.2784,-35.54973 h 0.1988 l -0.1988,35.29024 v 8.56308 l 0.3188,3.10662 2.8627,0.2667 h 7.9538 V 10.1571 l -16.5042,0.25949 -3.0202,10.63898 -6.1666,20.49946 -3.5393,12.19589 -3.6636,-11.67691 -6.0798,-20.23998 -2.5055,-8.30359 -1.157,-3.10665 -4.4902,-0.0174 z"
       id="path41"
       inkscape:export-filename="github.svg"
       inkscape:export-xdpi="96"
       inkscape:export-ydpi="96" /><path
       id="path67"
       style="display:inline;fill:url(#pattern104);fill-opacity:1;stroke:none;stroke-width:0.227328"
       d="m -1032.4174,-81.746414 c -1.7326,0.0655 -3.4718,0.24527 -5.2132,0.54458 -14.3467,2.46576 -27.6122,8.57724 -38.5452,21.52187 -3.2227,3.81569 -6.3031,8.09228 -8.8562,12.70076 -1.0817,1.9524 -2.4945,6.42205 -4.0999,7.56176 -0.8556,0.60747 -2.4797,-0.6989 -3.3361,-1.02212 -3.0094,-1.13567 -6.0228,-2.10759 -9.1396,-2.59747 -8.7563,-1.37618 -17.87,-0.0647 -26.0279,4.49235 -10.591,5.91611 -19.483,16.34626 -24.7842,29.8004198 -1.6037,4.07007 -2.7549,8.35204 -3.7114,12.74497 -0.3211,1.4747 -0.3726,4.729534 -1.2255,5.789814 -0.595,0.7397002 -1.896,0.6819102 -2.6648,0.8717602 -1.8194,0.44922 -3.6134,1.14187 -5.3646,1.9228 -4.7576,2.12167 -9.3262,5.64464 -13.1133,9.95804 -14.1469,16.11321 -18.2974,43.08876 -10.235,65.21029 2.2758,6.24457 5.6413,11.62256 9.4403,16.37625 6.557,8.20457 15.6977,12.89769 24.6371,14.01144 4.099,0.51068 8.3988,0.0443 12.5172,0.0443 h 22.0542 105.3039 33.57805 c 6.6946,0 13.65,0.71822 20.2659,-0.80215 5.0704,-1.16518 9.8477,-3.58925 14.3055,-6.92776 3.7145,-2.78178 7.1725,-6.49707 9.9603,-10.7373 14.8769,-22.62837 12.8876,-55.91499 -3.205,-76.4658 -5.4005,-6.89664 -12.283,-11.09382 -19.4712,-13.6786802 -2.2373,-0.80453 -4.6444,-1.180814 -6.9541,-1.387914 -0.7465,-0.067 -2.0879,0.334554 -2.5775,-0.62585 -0.4192,-0.82244 -0.2041,-2.35801 -0.2041,-3.29903 0,-2.57373 0.1525,-5.24039 -0.034,-7.80304 -0.5778,-7.9481898 -1.6627,-15.9017798 -3.8255,-23.4091498 -8.9573,-31.09335 -33.48555,-55.77685 -59.47435,-54.79506 z m -1.0148,14.30354 c 22.7281,-0.16836 44.46535,19.406 51.29105,49.07486 2.4921,10.8319198 2.3284,21.8444898 2.3284,33.032894 V 52.1195 h -0.1987 c -4.4535,-10.47151 -10.719,-20.12788 -16.009,-29.91168 -1.402,-2.59293 -2.8429,-5.1614 -4.19075,-7.80304 -0.5686,-1.11451 -1.1758,-2.95304 -2.0897,-3.63378 -0.8588,-0.63974 -2.3828,-0.26775 -3.3412,-0.26775 h -7.7488 v 65.80569 c 3.5776,0 7.8427,0.82528 11.3252,-0.2601 l -0.01,-11.44447 -0.1909,-29.65157 h 0.1986 c 4.81945,8.80875 9.62085,17.64906 14.36135,26.53035 2.4062,4.50793 4.6652,10.07179 7.6274,13.97336 1.5032,1.97997 6.1968,0.85243 8.2117,0.85243 0.734,0 2.0903,0.33083 2.6617,-0.41707 0.5981,-0.78304 0.3186,-2.73533 0.3186,-3.74455 V 62.26346 22.20782 c 16.8925,0 31.0498,18.42583 31.782,40.31577 0.2293,6.85302 -1.19,13.68493 -3.5193,19.76769 -1.6305,4.25802 -3.8974,8.06151 -6.6059,11.22757 -3.1884,3.72697 -6.8801,6.61729 -10.9278,8.45075 -9.2349,4.18298 -20.3681,2.17021 -30.0016,2.17021 h -56.82435 -84.8391 c -12.703,0 -27.7421,3.17763 -38.7439,-6.9501 -15.6143,-14.37386 -18.6307,-45.38231 -3.9737,-62.7129 3.7626,-4.44893 8.3775,-7.92865 13.312,-9.54401 3.3818,-1.10704 8.1358,-0.40102 10.6646,-4.04934 1.6683,-2.40687 1.6298,-5.29275 2.0024,-8.2994 0.428,-3.4537602 1.0986,-6.8844142 2.0761,-10.1439642 4.0343,-13.4515598 12.7562,-24.4385798 23.206,-29.2105998 7.0025,-3.19783 14.8368,-3.75365 22.0542,-1.51135 2.2182,0.68917 4.458,1.57081 6.5566,2.74226 2.4961,1.3933 4.8094,3.08912 7.5501,1.64239 2.8078,-1.48216 3.8463,-4.82765 5.2862,-7.99609 1.7129,-3.76936 3.7224,-7.32988 5.8942,-10.66417 6.5296,-10.02467 15.2615,-17.34142 24.7819,-21.49596 5.1794,-2.26019 10.4772,-3.35059 15.7222,-3.38945 z m -4.1076,75.9140838 c -7.6117,-0.445064 -15.4081,2.5937102 -20.935,9.6192002 -6.4725,8.22746 -8.5353,20.88327 -7.084,32.20838 0.4809,3.75308 1.3744,7.56422 2.7567,10.92426 6.2608,15.21766 19.9729,19.92256 32.1255,15.96374 3.7346,-1.21655 9.2836,-3.72989 11.8584,-7.68824 1.0779,-1.65726 0.4602,-5.93612 0.4602,-8.0154 v -21.5884 h -22.2529 l -0.1987,12.48488 h 8.1462 c 0.807,0 2.4351,-0.39981 3.059,0.41707 0.7205,0.94315 0.3186,3.80643 0.3186,5.04506 0,1.0525 0.2205,2.64401 -0.2041,3.58604 -0.654,1.45127 -2.8135,2.18192 -3.9683,2.64979 -4.3823,1.77537 -9.1337,1.23595 -13.1133,-1.78159 -7.4462,-5.64623 -9.3428,-19.15209 -5.9873,-28.90381 3.2538,-9.45633 11.8585,-13.43149 19.1006,-9.86656 1.726,0.84956 3.285,1.93603 4.7685,3.36807 0.5221,0.50408 1.2781,1.76441 1.969,1.76282 0.7755,-0.003 1.5404,-1.85216 1.9652,-2.54717 1.6528,-2.70459 3.3394,-5.37378 5.0067,-8.06315 -2.4312,-3.94405 -6.683,-6.61616 -10.3317,-7.98746 -2.4054,-0.9040102 -4.922,-1.4391702 -7.4593,-1.5875302 z m -31.8806,1.7719402 -16.491,0.2601 -3.0176,10.66416 -6.1615,20.54803 -3.5368,12.22479 -3.6606,-11.70456 -6.0751,-20.28795 -2.5033,-8.32325 -1.1561,-3.1136 -4.4867,-0.0177 -11.7225,0.0102 v 65.80569 h 11.1264 V 29.49078 h 0.1987 c 0.7589,4.19229 2.4206,8.26184 3.6909,12.22477 2.1604,6.73975 4.1975,13.54804 6.3579,20.28792 1.0245,3.1959 1.9604,6.44085 3.0087,9.62376 0.4121,1.25135 0.7284,3.04051 1.4106,4.07933 0.7561,1.15139 5.6732,1.10624 6.7083,0.44553 0.7236,-0.46189 1.0372,-2.31748 1.3152,-3.22432 0.8517,-2.77875 1.6955,-5.57263 2.5988,-8.32328 3.8401,-11.69339 8.1549,-23.5826 11.2693,-35.63389 h 0.1986 l -0.1986,35.37379 v 8.58334 l 0.3185,3.11409 2.8604,0.2672 h 7.9475 z"
       sodipodi:nodetypes="csscccccssssccscssccssscssssssccccssccssssccccccsssssccssscscsssscsccsscccsccssscssscccssssccssscccsscccccccccccccccssssssccccccccc" /><path
       style="fill:#000000;stroke-width:2.01998"
       d="m -1146.9452,253.07858 c -29.6286,-13.57272 -48.6057,-27.32083 -71.6061,-51.87541 -85.5932,-91.37741 -84.7164,-238.140498 1.9663,-329.08975 87.4181,-91.72075 228.11899,-91.72075 315.53689,0 76.2394,79.991952 87.2292,203.414978 26.5459,298.12831 -12.9661,20.2373 -39.6954,48.27329 -58.6571,61.52466 -17.7493,12.40413 -45.8435,26.36371 -55.9086,27.78017 -13.25459,1.86534 -13.53939,0.94991 -13.59379,-43.69285 -0.053,-42.89983 -1.5616,-54.16293 -8.8089,-65.73261 -5.2298,-8.34946 -4.7526,-10.0534 2.8163,-10.0534 2.8237,0 11.76549,-1.92813 19.87059,-4.28472 46.0943,-13.40212 68.4444,-43.555142 72.2443,-97.466612 1.9446,-27.587866 -4.9471,-54.967506 -17.4344,-69.265766 -3.5893,-4.10973 -3.7238,-5.63186 -1.736,-19.65643 2.191,-15.45809 0.8372,-31.57689 -3.6902,-43.93551 -2.1308,-5.816632 -2.4751,-5.942572 -13.0997,-4.79207 -11.1358,1.20589 -30.3754,9.48932 -43.0816,18.54843 -6.91809,4.9323 -7.31509,4.97556 -17.40909,1.89776 -14.5408,-4.43371 -77.1113,-4.43371 -91.6523,0 -10.094,3.0778 -10.491,3.03454 -17.4089,-1.89776 -12.7062,-9.05911 -31.9459,-17.34254 -43.0818,-18.54843 -10.6242,-1.150502 -10.9687,-1.024472 -13.1004,4.79207 -4.7818,13.04788 -6.2733,29.39705 -3.9557,43.36048 l 2.264,13.64175 -6.6607,10.69495 c -10.2587,16.47152 -13.624,27.45127956 -14.693,47.93869 -1.9492,37.344606 8.4129,70.302196 28.3111,90.047288 15.2121,15.09516 33.4035,23.25067 67.2432,30.14623 l 4.3645,0.88937 -4.8845,7.55214 c -2.6865,4.15367 -5.4243,11.09297 -6.0838,15.42066 -1.0298,6.75685 -2.21,8.23237 -8.3541,10.44391 -3.9352,1.41647 -12.4794,2.61175 -18.9871,2.65617 -16.1396,0.11016 -27.6722,-7.0395 -38.6071,-23.93466 -10.6106,-16.39353 -23.1322,-24.99028 -35.19,-24.15961 -10.0668,0.69351 -12.1544,3.98559 -5.894,9.29529 15.385,13.04854 20.1887,18.99182 26.3355,32.58251 12.4915,27.6188 29.1149,37.49222 60.4754,35.91905 l 17.5306,-0.87941 v 24.01805 c 0,15.9219 -0.7977,24.855 -2.3665,26.50097 -4.0182,4.21608 -13.7442,2.73086 -29.5592,-4.51391 z"
       id="path1" /></g></svg>
