<?xml version="1.0" encoding="UTF-8" standalone="no"?>
<!-- Created with Inkscape (http://www.inkscape.org/) -->

<svg
   width="110.11578mm"
   height="155.96843mm"
   viewBox="0 0 110.11578 155.96843"
   version="1.1"
   id="svg1"
   xml:space="preserve"
   xmlns:xlink="http://www.w3.org/1999/xlink"
   xmlns="http://www.w3.org/2000/svg"
   xmlns:svg="http://www.w3.org/2000/svg"><defs
     id="defs1"><pattern
       xlink:href="#DecorativePaper"
       preserveAspectRatio="xMidYMid"
       id="pattern145"
       patternTransform="matrix(0.05,0,0,0.05,20.494737,-94.484211)"
       x="0"
       y="0" /><pattern
       xlink:href="#DecorativePaper"
       preserveAspectRatio="xMidYMid"
       id="pattern144"
       patternTransform="matrix(0.05,0,0,0.05,20.494737,-94.484211)"
       x="0"
       y="0" /><pattern
       xlink:href="#DecorativePaper"
       preserveAspectRatio="xMidYMid"
       id="pattern143"
       patternTransform="matrix(0.05,0,0,0.05,20.494737,-94.484211)"
       x="0"
       y="0" /><pattern
       patternUnits="userSpaceOnUse"
       width="100"
       height="100"
       id="DecorativePaper"
       style="fill:#000000"
       preserveAspectRatio="xMidYMid"
       patternTransform="scale(0.5,0.5)"><path
         id="path163941"
         style="opacity:1;fill-opacity:0.994819;stroke-width:1"
         d="m 95.49805,0 c 0.2337,0.655687 1.33166,1.004203 1.73437,1.650391 l 0.002,0.0019 c 0.0425,0.01128 0.0803,0.0198 0.12305,0.03125 -0.0136,0.05056 -0.0274,0.09646 -0.041,0.146484 0.33338,0.766429 0.14131,1.975512 0.89062,2.279297 C 98.81461,4.355647 99.39115,3.738046 100,3.326122 V 0 Z m 1.81836,1.830078 c -0.0263,-0.06034 -0.0485,-0.123616 -0.082,-0.177734 -5.39503,-1.43204 -9.126682,-1.557222 -12.402348,0.333984 -4.330124,2.499998 -5.92927,5.732002 -7.027343,9.830078 4.098069,1.098079 9.063243,1.697264 12.527341,-0.302734 3.43205,-1.981503 5.52214,-4.326625 6.98438,-9.683594 z M 100,3.666016 C 96.44152,7.35613 94.63867,10.404321 94.63867,14 c 0,4.999995 2.00001,8.000013 5,11 0.12095,-0.120944 0.24058,-0.252824 0.36133,-0.376953 z m 0,71.001953 C 97.22825,77.581702 94.63867,81.285412 94.63867,85 c 0,3.956986 0.98357,6.93711 4.87696,10.87305 0.0495,0.0325 0.0999,0.061 0.14843,0.0996 C 99.78318,95.85337 99.88445,95.74091 100,95.62304 Z M 99.66406,95.97266 c -0.009,0.009 -0.0162,0.0182 -0.0254,0.0273 -0.043,-0.043 -0.0807,-0.0842 -0.12304,-0.12696 -0.22218,-0.1458 -0.45293,-0.23001 -0.71094,-0.16601 -0.84738,0.2102 -0.75052,1.62874 -1.3125,2.29687 -0.56199,0.66813 -1.97713,0.81665 -2.03906,1.6875 -0.008,0.11138 0.0106,0.21244 0.0449,0.3086 H 100 V 96.27535 C 99.88915,96.166 99.77708,96.06253 99.66406,95.97262 Z M 83.5,85.529297 c -1.704673,-0.0074 -3.402407,0.306702 -5.195312,0.787109 1.098075,4.098074 3.063245,8.697264 6.527343,10.697264 3.464096,2 6.561299,2.63403 12.025389,1.16992 C 95.39332,92.7195 93.63351,89.392441 90.33203,87.486328 87.896338,86.08008 85.691722,85.538783 83.5,85.529297 Z M 0.638672,74 C 0.424614,74.214058 0.212968,74.444092 0,74.667969 V 95.62305 C 3.746981,91.80072 5.638672,88.689684 5.638672,85 c 0,-4.999995 -2.000004,-8.000003 -5,-11 z m 15.332031,12.173828 c -2.186294,-0.03678 -4.293342,0.312503 -6.025391,1.3125 -3.454717,1.994583 -5.550106,4.354532 -7.013671,9.787112 0.182098,0.0273 0.35088,0.0716 0.486328,0.16601 5.188444,1.33602 8.830172,1.42011 12.027343,-0.42578 4.330122,-2.5 5.929273,-5.732 7.027344,-9.830076 -2.049035,-0.549037 -4.315658,-0.972987 -6.501953,-1.009766 z M 3.417969,97.43945 c -0.169265,-0.0436 -0.325421,-0.0768 -0.498047,-0.12304 0.004,-0.0148 0.0077,-0.0282 0.01172,-0.043 C 2.343505,97.18521 1.579644,97.34221 1.039064,97.12302 0.658911,96.96893 0.330006,96.60093 0,96.27539 V 100 H 3.017578 C 3.213131,99.19311 4.051132,98.33961 3.628906,97.66211 3.571186,97.56951 3.499814,97.49652 3.417969,97.43945 Z M 0,0 V 3.326172 C 0.200629,3.190434 0.405626,3.078197 0.615234,3.025391 c 0.0085,-0.0085 0.01493,-0.01688 0.02344,-0.02539 0.0064,0.0064 0.01121,0.01315 0.01758,0.01953 C 1.502169,2.836995 2.705571,3.514336 3.25977,2.855468 3.821753,2.187341 2.910716,1.095463 2.972656,0.224609 2.97796,0.150044 2.999266,0.075558 3.017578,0 Z m 0.65625,3.019531 c -0.01189,0.0026 -0.02537,9.93e-4 -0.03711,0.0039 -0.0014,3.4e-4 -0.0025,0.0016 -0.0039,0.002 C 0.396993,3.243908 0.206283,3.452101 0,3.666016 V 24.623047 C 2.874373,21.668176 5.638672,17.838737 5.638672,14 5.638672,10.006389 4.640295,7.009952 0.65625,3.019531 Z M 8.712891,0.015625 C 7.185226,0.013225 5.468957,0.26737 3.419922,0.816406 c 1.464098,5.464097 3.223909,8.791155 6.52539,10.697266 4.330119,2.499997 7.929269,2.267996 12.027344,1.169922 C 20.874579,8.585521 18.90941,3.986329 15.445312,1.986328 13.280254,0.736331 11.258999,0.019694 8.712891,0.015625 Z m 44.546711,52.839891 c -0.561988,0.668128 -1.792958,-0.04298 -2.640332,0.167217 -0.847373,0.210199 -1.603289,1.414175 -2.41238,1.086156 -0.809091,-0.328019 -0.513177,-1.718487 -0.974941,-2.459432 -0.461764,-0.740944 -1.840403,-1.087814 -1.778461,-1.958669 0.06194,-0.870855 1.475797,-1.019102 2.037785,-1.68723 0.561987,-0.668128 0.465857,-2.086481 1.31323,-2.29668 0.847374,-0.210199 1.42527,1.088647 2.234362,1.416666 0.809091,0.328019 2.128319,-0.201701 2.590082,0.539244 0.461764,0.740945 -0.594932,1.691923 -0.656874,2.562778 -0.06194,0.870855 0.849517,1.961822 0.287529,2.62995 z m 6.686643,8.657629 c 4.330123,2.5 7.928198,2.267947 12.026277,1.169872 -1.098078,-4.098077 -3.06218,-8.696152 -6.526281,-10.696155 -3.464097,-1.999997 -6.562176,-2.63397 -12.026275,-1.169872 1.4641,5.464102 3.224794,8.790042 6.526279,10.696155 z M 40.331514,37.486862 c -4.330126,-2.5 -7.928205,-2.267947 -12.026279,-1.169872 1.098077,4.098077 3.062179,8.696152 6.526281,10.696155 3.464099,2 6.562173,2.633975 12.026274,1.169872 -1.464102,-5.464102 -3.224797,-8.79004 -6.526276,-10.696155 z m 25.114727,9.526283 c 4.330126,-2.500003 5.928206,-5.732053 7.026278,-9.830128 -4.098074,-1.098075 -9.062173,-1.696152 -12.526274,0.303845 -3.464105,2.000003 -5.562179,4.366028 -7.026281,9.830128 5.464103,1.4641 9.2248,1.602267 12.526277,-0.303845 z m -30.614725,4.973717 c -4.330129,2.5 -5.928204,5.732053 -7.026279,9.830128 4.098074,1.09808 9.062173,1.696155 12.526277,-0.303845 3.464099,-2.000003 5.562171,-4.366025 7.026274,-9.830128 -5.464099,-1.464102 -9.224793,-1.602265 -12.526272,0.303845 z m 20.80736,-16.986857 c 0,-5 -2,-8 -4.999999,-11 -3,3 -5.999996,6.999997 -5.999996,11 0,4 0.999999,7 4.999996,11 3.999999,-4 5.999999,-7.187775 5.999999,-11 z m -10.999995,29 c 0,5 1.999999,8 4.999996,10.999999 3,-3 5.999999,-6.999999 5.999999,-10.999999 0,-4.000003 -1,-7.000003 -4.999999,-11 -3.999997,3.999997 -5.999996,7.187775 -5.999996,11 z m 6.361112,32.000005 a 3,3 0 0 0 3,3 3,3 0 0 0 3,-3 3,3 0 0 0 -3,-3 3,3 0 0 0 -3,3 z M 92.99998,54.000005 a 3,3 0 0 0 3,3 3,3 0 0 0 3,-3 3,3 0 0 0 -3,-3 3,3 0 0 0 -3,3 z m -6.999996,6.999997 a 3,3 0 0 0 3,3 3,3 0 0 0 3,-3 3,3 0 0 0 -3,-3 3,3 0 0 0 -3,3 z m -6.999995,7.000003 a 3,3 0 0 0 3,3 3,3 0 0 0 3,-3 3,3 0 0 0 -3,-3 3,3 0 0 0 -3,3 z m -7.000001,6.999997 a 3,3 0 0 0 3,3 3,3 0 0 0 3,-3 3,3 0 0 0 -3,-3 3,3 0 0 0 -3,3 z m -6.999999,7.000003 a 3,3 0 0 0 3,3 3,3 0 0 0 3,-3 3,3 0 0 0 -3,-3 3,3 0 0 0 -3,3 z m -6.999998,6.999997 A 3,3 0 0 0 60.999993,92 a 3,3 0 0 0 3,-3 3,3 0 0 0 -3,-3 3,3 0 0 0 -3,3 z m -56.999983,-43 a 3,3 0 0 0 3,3 3,3 0 0 0 3,-3 3,3 0 0 0 -3,-3 3,3 0 0 0 -3,3 z M 42.999995,4.000006 a 3,3 0 0 0 3,3 3,3 0 0 0 3,-3 3,3 0 0 0 -3,-3.000004 3,3 0 0 0 -3,3.000004 z m -6.999999,6.999998 a 3,3 0 0 0 3,3 3,3 0 0 0 3,-3 3,3 0 0 0 -3,-3 3,3 0 0 0 -3,3 z m -6.999995,6.999999 A 3,3 0 0 0 32,21.000002 a 3,3 0 0 0 3,-3 3,3 0 0 0 -3,-3 3,3 0 0 0 -3,3 z M 22,25.000005 a 3,3 0 0 0 3,3 3,3 0 0 0 3,-3 3,3 0 0 0 -3,-3 3,3 0 0 0 -3,3 z m -6.999997,6.999997 a 3,3 0 0 0 3,3 3,3 0 0 0 3,-3 3,3 0 0 0 -3,-3 3,3 0 0 0 -3,3 z m -6.999999,7.000003 a 3,3 0 0 0 3,3 3,3 0 0 0 3,-3 3,3 0 0 0 -3,-3 3,3 0 0 0 -3,3 z m 90.999976,6.999997 a 3,3 0 0 1 -3,3 3,3 0 0 1 -3,-3 3,3 0 0 1 3,-3 3,3 0 0 1 3,3 z M 56.999991,4.000006 a 3,3 0 0 1 -3,3 3,3 0 0 1 -3,-3 3,3 0 0 1 3,-3.000004 3,3 0 0 1 3,3.000004 z m 7.000001,6.999998 a 3,3 0 0 1 -3,3 3,3 0 0 1 -3,-3 3,3 0 0 1 3,-3 3,3 0 0 1 3,3 z m 6.999996,6.999999 a 3,3 0 0 1 -3,3 3,3 0 0 1 -3,-3 3,3 0 0 1 3,-3 3,3 0 0 1 3,3 z m 7.000001,7.000002 a 3,3 0 0 1 -3,3 3,3 0 0 1 -3,-3 3,3 0 0 1 3,-3 3,3 0 0 1 3,3 z m 6.999996,6.999997 a 3,3 0 0 1 -3,3 3,3 0 0 1 -3,-3 3,3 0 0 1 3,-3 3,3 0 0 1 3,3 z m 6.999995,7.000003 a 3,3 0 0 1 -3,3 3,3 0 0 1 -3,-3 3,3 0 0 1 3,-3 3,3 0 0 1 3,3 z M 48.999993,96.00001 a 3,3 0 0 1 -3,3 3,3 0 0 1 -3,-3 3,3 0 0 1 3,-3 3,3 0 0 1 3,3 z M 7.000004,54.000005 a 3,3 0 0 1 -3,3 3,3 0 0 1 -3,-3 3,3 0 0 1 3,-3 3,3 0 0 1 3,3 z m 7,6.999997 a 3,3 0 0 1 -3,3 3,3 0 0 1 -3,-3 3,3 0 0 1 3,-3 3,3 0 0 1 3,3 z M 21,68.000005 a 3,3 0 0 1 -3,3 3,3 0 0 1 -3,-3 3,3 0 0 1 3,-3 3,3 0 0 1 3,3 z m 7.000001,6.999998 A 3,3 0 0 1 24.999999,78.000002 3,3 0 0 1 22,75.000003 a 3,3 0 0 1 3,-3 3,3 0 0 1 3,3 z m 6.999996,7.000002 a 3,3 0 0 1 -3,3 3,3 0 0 1 -3,-3 3,3 0 0 1 3,-3 3,3 0 0 1 3,3 z m 6.999998,6.999997 A 3,3 0 0 1 38.999996,92 a 3,3 0 0 1 -3,-3 3,3 0 0 1 3,-3 3,3 0 0 1 3,3 z" /></pattern><linearGradient
       id="linearGradient115"><stop
         style="stop-color:#67afc0;stop-opacity:1;"
         offset="0"
         id="stop114" /><stop
         style="stop-color:#3c1f4b;stop-opacity:1;"
         offset="1"
         id="stop115" /></linearGradient><linearGradient
       id="linearGradient113"><stop
         style="stop-color:#67afc0;stop-opacity:1;"
         offset="0"
         id="stop112" /><stop
         style="stop-color:#3c1f4b;stop-opacity:1;"
         offset="1"
         id="stop113" /></linearGradient><linearGradient
       id="linearGradient109"><stop
         style="stop-color:#67afc0;stop-opacity:1;"
         offset="0"
         id="stop109" /><stop
         style="stop-color:#3c1f4b;stop-opacity:1;"
         offset="1"
         id="stop110" /></linearGradient><linearGradient
       id="swatch106"><stop
         style="stop-color:#000000;stop-opacity:1;"
         offset="0"
         id="stop107" /></linearGradient><linearGradient
       id="linearGradient21"><stop
         style="stop-color:#000000;stop-opacity:0.78102189;"
         offset="0"
         id="stop20" /><stop
         style="stop-color:#000000;stop-opacity:0;"
         offset="1"
         id="stop21" /></linearGradient><linearGradient
       id="linearGradient17"><stop
         style="stop-color:#000000;stop-opacity:1;"
         offset="0"
         id="stop17" /><stop
         style="stop-color:#000000;stop-opacity:0;"
         offset="1"
         id="stop18" /></linearGradient><radialGradient
       xlink:href="#linearGradient109"
       id="radialGradient110"
       cx="61.402836"
       cy="309.66098"
       fx="61.402836"
       fy="309.66098"
       r="6.1168098"
       gradientTransform="matrix(1,0,0,1.1177646,20.494737,-130.95132)"
       gradientUnits="userSpaceOnUse" /><radialGradient
       xlink:href="#linearGradient113"
       id="radialGradient112"
       cx="94.888847"
       cy="308.94681"
       fx="94.888847"
       fy="308.94681"
       r="14.298455"
       gradientTransform="matrix(1,0,0,0.80488311,20.494737,-34.203469)"
       gradientUnits="userSpaceOnUse" /><linearGradient
       xlink:href="#linearGradient115"
       id="linearGradient114"
       x1="0.67145401"
       y1="309.60806"
       x2="45.211933"
       y2="309.60806"
       gradientUnits="userSpaceOnUse"
       gradientTransform="translate(20.494737,-94.484211)" /></defs><g
     id="layer1"
     style="display:inline"
     transform="translate(-20.147368,-140.33684)"><path
       style="display:inline;fill:url(#radialGradient110);stroke-width:0.0956443"
       d="m 80.861761,221.99332 c -0.21324,-0.0577 -0.44311,-0.25825 -0.54044,-0.47142 -0.0937,-0.2053 -0.0996,-0.3491 -0.0996,-2.44747 v -2.02802 h -1.8151 c -1.87805,0 -2.00675,-0.007 -2.19049,-0.11127 -0.13697,-0.0781 -0.29884,-0.27208 -0.37147,-0.4452 l -0.0639,-0.15238 v -1.16359 -1.16358 l 0.0639,-0.15238 c 0.0726,-0.17312 0.2345,-0.36713 0.37147,-0.4452 0.18374,-0.10473 0.31244,-0.11127 2.19049,-0.11127 h 1.8151 v -2.02802 c 0,-2.09837 0.006,-2.24217 0.0996,-2.44747 0.0699,-0.15303 0.2435,-0.33389 0.39846,-0.41504 l 0.13637,-0.0714 h 1.04142 1.04141 l 0.13638,0.0714 c 0.15495,0.0812 0.32859,0.26201 0.39846,0.41504 0.0937,0.2053 0.0996,0.3491 0.0996,2.44747 v 2.02802 h 1.81509 c 1.87805,0 2.00675,0.007 2.1905,0.11127 0.13696,0.0781 0.29884,0.27208 0.37147,0.4452 l 0.0639,0.15238 v 1.16358 1.16359 l -0.0639,0.15238 c -0.0726,0.17312 -0.23451,0.36712 -0.37147,0.4452 -0.18375,0.10473 -0.31245,0.11127 -2.1905,0.11127 h -1.81509 v 2.02802 c 0,2.09837 -0.006,2.24217 -0.0996,2.44747 -0.0699,0.15303 -0.24351,0.33389 -0.39846,0.41504 l -0.13638,0.0714 -0.99353,0.005 c -0.54644,0.003 -1.0341,-0.006 -1.08369,-0.0197 z"
       id="path5" /><path
       style="display:inline;fill:url(#linearGradient114);fill-opacity:1;stroke-width:0.329592"
       d="m 42.088876,227.17938 c -5.390573,-0.32695 -10.992159,-2.76868 -16.01896,-6.98265 -1.367152,-1.14608 -3.12075,-2.90401 -4.137201,-4.14741 l -0.766524,-0.93767 0.766524,-0.93766 c 3.188955,-3.90096 8.144836,-7.57342 12.635938,-9.3636 3.130675,-1.24791 5.785634,-1.78118 8.867777,-1.78118 3.082141,0 5.737103,0.53327 8.867777,1.78118 4.4911,1.79018 9.446987,5.46264 12.635938,9.3636 l 0.766526,0.93766 -0.766526,0.93767 c -1.016452,1.2434 -2.770052,3.00133 -4.1372,4.14741 -5.882511,4.93132 -12.405693,7.36527 -18.714069,6.98265 z m 2.985738,-3.75556 c 5.638963,-1.1585 8.509799,-7.43239 5.70773,-12.4736 -0.708348,-1.2744 -1.943127,-2.51673 -3.209773,-3.22941 -2.961221,-1.66613 -6.708568,-1.38242 -9.31219,0.70503 l -0.605251,0.48526 -0.173949,-0.21207 c -0.09567,-0.11664 -0.382671,-0.45049 -0.637774,-0.7419 L 36.379583,207.42729 35.47167,207.81 c -1.179832,0.49733 -2.803802,1.34735 -3.929702,2.05689 -1.8099,1.14059 -4.140237,3.0252 -5.665038,4.58148 l -0.649866,0.66328 0.649866,0.66329 c 2.638933,2.69341 6.104117,5.12165 9.285122,6.50658 1.244881,0.54199 1.257681,0.53967 0.647287,-0.11696 -1.790556,-1.92621 -2.722884,-4.35248 -2.715453,-7.06664 0.0028,-1.00529 0.144794,-2.26361 0.269708,-2.38929 0.04976,-0.0501 1.751009,0.22421 1.827597,0.29464 0.03159,0.029 0.0037,0.32836 -0.06201,0.66512 -0.257294,1.31895 -0.07784,3.18047 0.432764,4.48902 1.503683,3.85357 5.532647,6.08409 9.512668,5.26641 z m -1.985939,-2.69019 c -1.610581,-0.12799 -3.126439,-0.92516 -4.046314,-2.12792 -0.481837,-0.63001 -0.940132,-1.60307 -1.080785,-2.29472 -0.130781,-0.64312 -0.13217,-1.7508 -0.003,-2.3769 0.08916,-0.4321 0.120505,-0.47989 0.289415,-0.44128 0.562017,0.1285 3.913158,0.65682 3.94744,0.62234 0.02222,-0.0223 -0.540395,-0.69581 -1.25024,-1.49657 -0.709845,-0.80076 -1.301509,-1.50286 -1.31481,-1.56021 -0.03551,-0.15313 0.785659,-0.7393 1.494367,-1.06671 0.762674,-0.35234 1.418651,-0.49194 2.311662,-0.49194 0.896656,0 1.549344,0.13975 2.323747,0.49756 1.252185,0.57856 2.184495,1.51657 2.759541,2.77642 0.355631,0.77913 0.494535,1.43581 0.494535,2.33795 0,1.29852 -0.393974,2.4614 -1.183752,3.49406 -1.059744,1.38564 -3.018939,2.26484 -4.741825,2.12792 z m 8.622134,1.54789 c 3.181005,-1.38493 6.646189,-3.81317 9.285121,-6.50658 l 0.649865,-0.66329 -0.649865,-0.66328 c -2.638932,-2.69341 -6.104116,-5.12165 -9.285121,-6.50658 -1.244883,-0.542 -1.257681,-0.53968 -0.647289,0.11696 1.784097,1.91926 2.718651,4.34374 2.718651,7.0529 0,2.70917 -0.934554,5.13365 -2.718651,7.05291 -0.610392,0.65663 -0.597594,0.65895 0.647289,0.11696 z"
       id="path4" /><path
       style="display:inline;fill:url(#radialGradient112);stroke-width:0.897496"
       d="m 101.15692,221.65549 0.0716,-4.31571 h 1.71979 1.71979 l 0.0738,2.82386 0.0738,2.82386 h 10.56798 10.56797 l 0.0738,-2.82386 0.0738,-2.82386 h 1.71979 1.7198 l 0.0716,4.31571 0.0716,4.31571 h -14.29845 -14.29846 z m 10.69705,-5.70008 c -1.84216,-2.22661 -3.34939,-4.09218 -3.34939,-4.14569 0,-0.0535 0.74414,-0.12587 1.65365,-0.16077 l 1.65364,-0.0635 0.0716,-4.31571 0.0716,-4.31571 h 3.42863 3.42862 l 0.0716,4.31571 0.0716,4.31571 1.65365,0.0635 c 0.9095,0.0349 1.65364,0.10724 1.65364,0.16077 0,0.20418 -6.70774,8.19408 -6.87916,8.19408 -0.0992,0 -1.68762,-1.82177 -3.52978,-4.04839 z"
       id="path6" /></g><g
     id="g6"
     style="display:inline"
     transform="translate(-20.147368,-140.33684)"><path
       style="fill:url(#pattern143);fill-opacity:1;stroke-width:0.329592"
       d="m 42.088876,227.17938 c -5.390573,-0.32695 -10.992159,-2.76868 -16.01896,-6.98265 -1.367152,-1.14608 -3.12075,-2.90401 -4.137201,-4.14741 l -0.766524,-0.93767 0.766524,-0.93766 c 3.188955,-3.90096 8.144836,-7.57342 12.635938,-9.3636 3.130675,-1.24791 5.785634,-1.78118 8.867777,-1.78118 3.082141,0 5.737103,0.53327 8.867777,1.78118 4.4911,1.79018 9.446987,5.46264 12.635938,9.3636 l 0.766526,0.93766 -0.766526,0.93767 c -1.016452,1.2434 -2.770052,3.00133 -4.1372,4.14741 -5.882511,4.93132 -12.405693,7.36527 -18.714069,6.98265 z m 2.985738,-3.75556 c 5.638963,-1.1585 8.509799,-7.43239 5.70773,-12.4736 -0.708348,-1.2744 -1.943127,-2.51673 -3.209773,-3.22941 -2.961221,-1.66613 -6.708568,-1.38242 -9.31219,0.70503 l -0.605251,0.48526 -0.173949,-0.21207 c -0.09567,-0.11664 -0.382671,-0.45049 -0.637774,-0.7419 L 36.379583,207.42729 35.47167,207.81 c -1.179832,0.49733 -2.803802,1.34735 -3.929702,2.05689 -1.8099,1.14059 -4.140237,3.0252 -5.665038,4.58148 l -0.649866,0.66328 0.649866,0.66329 c 2.638933,2.69341 6.104117,5.12165 9.285122,6.50658 1.244881,0.54199 1.257681,0.53967 0.647287,-0.11696 -1.790556,-1.92621 -2.722884,-4.35248 -2.715453,-7.06664 0.0028,-1.00529 0.144794,-2.26361 0.269708,-2.38929 0.04976,-0.0501 1.751009,0.22421 1.827597,0.29464 0.03159,0.029 0.0037,0.32836 -0.06201,0.66512 -0.257294,1.31895 -0.07784,3.18047 0.432764,4.48902 1.503683,3.85357 5.532647,6.08409 9.512668,5.26641 z m -1.985939,-2.69019 c -1.610581,-0.12799 -3.126439,-0.92516 -4.046314,-2.12792 -0.481837,-0.63001 -0.940132,-1.60307 -1.080785,-2.29472 -0.130781,-0.64312 -0.13217,-1.7508 -0.003,-2.3769 0.08916,-0.4321 0.120505,-0.47989 0.289415,-0.44128 0.562017,0.1285 3.913158,0.65682 3.94744,0.62234 0.02222,-0.0223 -0.540395,-0.69581 -1.25024,-1.49657 -0.709845,-0.80076 -1.301509,-1.50286 -1.31481,-1.56021 -0.03551,-0.15313 0.785659,-0.7393 1.494367,-1.06671 0.762674,-0.35234 1.418651,-0.49194 2.311662,-0.49194 0.896656,0 1.549344,0.13975 2.323747,0.49756 1.252185,0.57856 2.184495,1.51657 2.759541,2.77642 0.355631,0.77913 0.494535,1.43581 0.494535,2.33795 0,1.29852 -0.393974,2.4614 -1.183752,3.49406 -1.059744,1.38564 -3.018939,2.26484 -4.741825,2.12792 z m 8.622134,1.54789 c 3.181005,-1.38493 6.646189,-3.81317 9.285121,-6.50658 l 0.649865,-0.66329 -0.649865,-0.66328 c -2.638932,-2.69341 -6.104116,-5.12165 -9.285121,-6.50658 -1.244883,-0.542 -1.257681,-0.53968 -0.647289,0.11696 1.784097,1.91926 2.718651,4.34374 2.718651,7.0529 0,2.70917 -0.934554,5.13365 -2.718651,7.05291 -0.610392,0.65663 -0.597594,0.65895 0.647289,0.11696 z"
       id="path77" /><path
       style="fill:url(#pattern144);fill-opacity:1;stroke-width:0.0956443"
       d="m 80.861761,221.99332 c -0.21324,-0.0577 -0.44311,-0.25825 -0.54044,-0.47142 -0.0937,-0.2053 -0.0996,-0.3491 -0.0996,-2.44747 v -2.02802 h -1.8151 c -1.87805,0 -2.00675,-0.007 -2.19049,-0.11127 -0.13697,-0.0781 -0.29884,-0.27208 -0.37147,-0.4452 l -0.0639,-0.15238 v -1.16359 -1.16358 l 0.0639,-0.15238 c 0.0726,-0.17312 0.2345,-0.36713 0.37147,-0.4452 0.18374,-0.10473 0.31244,-0.11127 2.19049,-0.11127 h 1.8151 v -2.02802 c 0,-2.09837 0.006,-2.24217 0.0996,-2.44747 0.0699,-0.15303 0.2435,-0.33389 0.39846,-0.41504 l 0.13637,-0.0714 h 1.04142 1.04141 l 0.13638,0.0714 c 0.15495,0.0812 0.32859,0.26201 0.39846,0.41504 0.0937,0.2053 0.0996,0.3491 0.0996,2.44747 v 2.02802 h 1.81509 c 1.87805,0 2.00675,0.007 2.1905,0.11127 0.13696,0.0781 0.29884,0.27208 0.37147,0.4452 l 0.0639,0.15238 v 1.16358 1.16359 l -0.0639,0.15238 c -0.0726,0.17312 -0.23451,0.36712 -0.37147,0.4452 -0.18375,0.10473 -0.31245,0.11127 -2.1905,0.11127 h -1.81509 v 2.02802 c 0,2.09837 -0.006,2.24217 -0.0996,2.44747 -0.0699,0.15303 -0.24351,0.33389 -0.39846,0.41504 l -0.13638,0.0714 -0.99353,0.005 c -0.54644,0.003 -1.0341,-0.006 -1.08369,-0.0197 z"
       id="path78" /><path
       style="display:inline;fill:url(#pattern145);fill-opacity:1;stroke-width:0.897496"
       d="m 101.15692,221.65549 0.0716,-4.31571 h 1.71979 1.71979 l 0.0738,2.82386 0.0738,2.82386 h 10.56798 10.56797 l 0.0738,-2.82386 0.0738,-2.82386 h 1.71979 1.7198 l 0.0716,4.31571 0.0716,4.31571 h -14.29845 -14.29846 z m 10.69705,-5.70008 c -1.84216,-2.22661 -3.34939,-4.09218 -3.34939,-4.14569 0,-0.0535 0.74414,-0.12587 1.65365,-0.16077 l 1.65364,-0.0635 0.0716,-4.31571 0.0716,-4.31571 h 3.42863 3.42862 l 0.0716,4.31571 0.0716,4.31571 1.65365,0.0635 c 0.9095,0.0349 1.65364,0.10724 1.65364,0.16077 0,0.20418 -6.70774,8.19408 -6.87916,8.19408 -0.0992,0 -1.68762,-1.82177 -3.52978,-4.04839 z"
       id="path79" /><rect
       style="fill:#67afc0;fill-opacity:0;fill-rule:evenodd;stroke-width:0.264583"
       id="rect148"
       width="110.11578"
       height="155.9684"
       x="20.147367"
       y="140.33684" /></g></svg>
