<?xml version="1.0" encoding="UTF-8" standalone="no"?>
<!-- Created with Inkscape (http://www.inkscape.org/) -->

<svg
   width="54.748554mm"
   height="61.780975mm"
   viewBox="0 0 54.748554 61.780975"
   version="1.1"
   id="svg1"
   xml:space="preserve"
   xmlns:inkscape="http://www.inkscape.org/namespaces/inkscape"
   xmlns:sodipodi="http://sodipodi.sourceforge.net/DTD/sodipodi-0.dtd"
   xmlns="http://www.w3.org/2000/svg"
   xmlns:svg="http://www.w3.org/2000/svg"><sodipodi:namedview
     id="namedview1"
     pagecolor="#ffffff"
     bordercolor="#000000"
     borderopacity="0.25"
     inkscape:showpageshadow="2"
     inkscape:pageopacity="0.0"
     inkscape:pagecheckerboard="0"
     inkscape:deskcolor="#d1d1d1"
     inkscape:document-units="mm"><inkscape:page
       x="0"
       y="0"
       width="54.748554"
       height="61.780975"
       id="page2"
       margin="0"
       bleed="0" /></sodipodi:namedview><defs
     id="defs1" /><g
     inkscape:label="Layer 1"
     inkscape:groupmode="layer"
     id="layer1"
     transform="translate(178.94704,-103.30512)"><path
       style="fill:#000000"
       d="m -137.95685,164.8549 c -3.27521,-0.63963 -6.45662,-3.22725 -8.01649,-6.52027 -0.77733,-1.641 -0.84705,-2.00597 -0.84705,-4.43402 0,-1.45521 0.0987,-3.07153 0.21922,-3.59183 0.21921,-0.94598 0.21921,-0.94598 -6.29294,-3.92204 -6.51215,-2.97605 -6.51215,-2.97605 -7.48319,-2.12347 -1.29948,1.14096 -3.43047,2.08546 -5.50824,2.44136 -4.75321,0.81419 -9.91918,-1.93284 -12.09217,-6.43007 -0.71299,-1.47561 -0.84645,-2.08243 -0.94001,-4.27393 -0.0826,-1.9348 0.002,-2.89717 0.34832,-3.96875 2.36046,-7.30075 10.9471,-10.37768 17.2206,-6.17083 l 1.7249,1.15666 6.66634,-3.73061 c 3.66649,-2.05185 6.70315,-3.75923 6.74814,-3.79418 0.045,-0.035 -0.11754,-0.74927 -0.36117,-1.58735 -0.69755,-2.39949 -0.44922,-5.60373 0.60965,-7.86648 3.32798,-7.11174 12.43811,-8.98348 18.08571,-3.71584 2.58707,2.41301 3.67672,4.90811 3.67672,8.41902 0,3.48922 -1.09191,6.00823 -3.63069,8.37597 -1.57827,1.47194 -2.94186,2.20417 -5.16709,2.77465 -3.03717,0.77864 -6.82145,0.008 -9.31781,-1.89753 -1.16407,-0.88855 -1.16407,-0.88855 -7.72997,2.79643 -3.61125,2.02673 -6.66613,3.72023 -6.78861,3.76332 -0.12249,0.0431 -0.0195,0.77738 0.22888,1.63175 0.42976,1.47833 0.4411,2.73352 0.0618,6.83853 -0.0662,0.71635 0.0967,0.81014 6.35519,3.65929 6.42313,2.9241 6.42313,2.9241 7.39626,2.06968 4.07109,-3.57446 10.81119,-3.3654 14.91535,0.46264 2.58707,2.41301 3.67672,4.90811 3.67672,8.41902 0,7.34878 -6.48748,12.63883 -13.75834,11.21888 z m 5.44979,-4.94686 c 1.29057,-0.6584 2.92043,-2.40557 3.47167,-3.72155 0.53354,-1.27372 0.51422,-3.87254 -0.0386,-5.1963 -0.54629,-1.30805 -2.05595,-2.90302 -3.45887,-3.65431 -1.50335,-0.80507 -4.58764,-0.79935 -6.11934,0.0114 -1.41431,0.74858 -3.09635,2.67022 -3.49138,3.98872 -0.43207,1.44211 -0.38867,3.76972 0.0917,4.91948 0.76235,1.82455 2.6323,3.5077 4.62249,4.1607 1.09311,0.35866 3.76369,0.083 4.92233,-0.5081 z m -32.29492,-18.1427 c 1.58709,-0.73905 3.34716,-2.64147 3.77981,-4.0855 1.14064,-3.80714 -0.91866,-7.84104 -4.55396,-8.92061 -1.66759,-0.49522 -2.37423,-0.49115 -4.10783,0.0237 -1.68964,0.50177 -3.46281,2.04747 -4.27614,3.72758 -0.75447,1.55854 -0.77893,4.03542 -0.056,5.66976 1.5525,3.50968 5.81472,5.16806 9.21411,3.5851 z m 32.29492,-20.75105 c 1.29057,-0.65839 2.92043,-2.40557 3.47167,-3.72155 0.51805,-1.23673 0.51805,-3.8642 0,-5.10093 -0.54654,-1.30475 -2.17036,-3.05316 -3.47945,-3.74642 -0.82575,-0.43729 -1.53844,-0.57002 -3.06076,-0.57002 -2.38987,0 -3.6492,0.56585 -5.21287,2.34227 -2.27579,2.58543 -2.27661,6.4629 -0.002,9.04708 1.01144,1.14906 1.99421,1.80921 3.36101,2.25767 1.09311,0.35866 3.76369,0.083 4.92233,-0.5081 z"
       id="path1" /></g></svg>
